<svg width="14" height="14" viewBox="0 0 14 14" fill="none" xmlns="http://www.w3.org/2000/svg">
<path d="M6.4988 2.02091L10.6427 6.16474H1.57197C1.1398 6.16474 0.789062 6.51548 0.789062 6.94763C0.789062 7.37979 1.1398 7.73052 1.57197 7.73052H10.6427L6.4988 11.8743C6.19269 12.1805 6.19269 12.676 6.4988 12.9814C6.80492 13.2867 7.3005 13.2875 7.60583 12.9814L13.0862 7.50113C13.1582 7.42911 13.2161 7.34299 13.2561 7.24748C13.3351 7.05567 13.3351 6.83959 13.2561 6.64778C13.2177 6.5554 13.1613 6.46929 13.0862 6.39413L7.60583 0.913908C7.29972 0.607799 6.80414 0.607799 6.4988 0.913908C6.19347 1.22002 6.19269 1.71559 6.4988 2.02091Z" fill="#FCFCFC"/>
</svg>
