<svg width="14" height="14" viewBox="0 0 14 14" fill="none" xmlns="http://www.w3.org/2000/svg">
<path d="M7.5012 11.9791L3.35727 7.83526L12.428 7.83526C12.8602 7.83526 13.2109 7.48452 13.2109 7.05237C13.2109 6.62021 12.8602 6.26948 12.428 6.26948L3.35727 6.26948L7.5012 2.12565C7.80731 1.81954 7.80731 1.32397 7.5012 1.01865C7.19508 0.713319 6.6995 0.712536 6.39417 1.01865L0.913818 6.49887C0.841791 6.57089 0.783856 6.65701 0.743928 6.75252C0.664855 6.94433 0.664855 7.16041 0.743928 7.35222C0.78229 7.4446 0.838659 7.53071 0.913818 7.60587L6.39417 13.0861C6.70028 13.3922 7.19586 13.3922 7.5012 13.0861C7.80653 12.78 7.80731 12.2844 7.5012 11.9791Z" fill="#FCFCFC"/>
</svg>
